<svg width="300" height="300" viewBox="0 0 300 300" fill="none" xmlns="http://www.w3.org/2000/svg">
<path fill-rule="evenodd" clip-rule="evenodd" d="M149.747 169.828C144.465 169.837 139.178 169.393 133.943 168.496C121.026 166.28 108.726 161.348 97.8557 154.026C86.9858 146.703 77.7937 137.157 70.887 126.019C63.9803 114.88 59.5162 102.403 57.7898 89.4106C56.5088 79.7705 56.7568 70.0101 58.5053 60.4861C35.9214 83.5666 22 115.158 22 150C22 220.692 79.3076 278 150 278C156.528 278 162.941 277.511 169.206 276.569C173.984 274.37 178.469 271.489 182.51 267.976C193.327 258.573 200.105 245.387 201.478 231.157C186.354 241.269 168.461 246.78 150 246.78C125.436 246.78 101.878 237.023 84.5093 219.653C71.3697 206.514 62.5858 189.833 59.087 171.854H96.9698C99.6898 180.006 104.279 187.501 110.47 193.692C120.954 204.176 135.174 210.066 150 210.066C164.826 210.066 179.046 204.176 189.53 193.692C189.933 193.288 190.331 192.879 190.721 192.464C189.868 191.316 188.969 190.197 188.025 189.11C178.297 177.92 164.524 171.053 149.733 170.019L149.747 169.828ZM152.291 133.441L149.627 133.114C146.459 133.115 143.289 132.848 140.15 132.309C132.353 130.972 124.929 127.995 118.368 123.575C114.879 121.225 111.677 118.496 108.816 115.444C109.677 114.452 110.576 113.487 111.511 112.552C121.995 102.068 136.214 96.1781 151.041 96.1781C165.867 96.1781 180.086 102.068 190.57 112.552C196.762 118.743 201.351 126.238 204.071 134.39H241.954C238.455 116.411 229.671 99.7301 216.531 86.5906C199.162 69.2214 175.604 59.4634 151.041 59.4634C130.149 59.4634 109.985 66.522 93.7372 79.3184C93.5063 73.1987 94.2822 67.0702 96.0451 61.1804C98.3135 53.6019 102.165 46.5911 107.344 40.6114C112.523 34.6317 118.912 29.8193 126.089 26.4922C129.829 24.7583 133.739 23.4484 137.746 22.579C141.779 22.1959 145.867 22 150 22C220.692 22 278 79.3076 278 150C278 187.3 262.046 220.873 236.589 244.268C237.393 240.322 237.942 236.308 238.226 232.246C239.12 219.469 237.347 206.78 233.162 194.933L233.252 194.748H233.096C229.254 183.944 223.402 173.845 215.733 165.023C202.346 149.622 184.331 139.163 164.567 135.082L164.531 134.944L162.747 134.725C159.307 134.086 155.818 133.64 152.295 133.393L152.291 133.441Z" fill="#6E1CD8"/>
</svg>
